M48
INCH
T1C0.0118
T2C0.0157
T3C0.0394
T4C0.0433
T5C0.0591
T6C0.0606
T7C0.0669
T8C0.1299
T9C0.1575
%
G90
G05
T1
X1.2677Y-3.685
X1.2756Y-2.9685
X1.2756Y-3.3858
X1.2756Y-4.1102
X1.5138Y-4.4488
X1.5197Y-2.622
X1.5197Y-4.0709
X1.5512Y-4.5354
X1.5748Y-4.3701
X1.6614Y-4.1811
X1.7717Y-3.0787
X1.7953Y-2.7008
X1.8031Y-3.2283
X1.8268Y-4.8031
X1.9291Y-3.063
X1.937Y-2.8268
X1.9921Y-3.3465
X1.9921Y-3.7244
X2.0394Y-2.6772
X2.0531Y-4.1043
X2.0945Y-4.0079
X2.1024Y-4.8189
X2.1024Y-5.0945
X2.1102Y-4.5039
X2.1319Y-4.1919
X2.1654Y-4.2362
X2.189Y-3.9528
X2.2126Y-4.5669
X2.2598Y-4.1732
X2.2835Y-5.1417
X2.2881Y-4.2458
X2.312Y-3.4961
X2.315Y-2.6457
X2.3307Y-4.5039
X2.3366Y-3.2352
X2.3386Y-4.6142
X2.3622Y-4.1181
X2.374Y-4.2559
X2.378Y-4.9606
X2.4124Y-3.188
X2.4252Y-3.2441
X2.437Y-3.1496
X2.4488Y-4.1417
X2.4567Y-3.0236
X2.4803Y-3.937
X2.5098Y-2.8366
X2.5276Y-2.9843
X2.5354Y-4.5669
X2.5512Y-3.1732
X2.5512Y-3.9134
X2.5512Y-4.874
X2.5591Y-2.8268
X2.5827Y-4.6614
X2.6339Y-2.8268
X2.6417Y-4.2697
X2.6535Y-3.6614
X2.6535Y-4.1811
X2.6575Y-4.4409
X2.6693Y-2.7165
X2.6713Y-3.3465
X2.6929Y-4.7244
X2.7087Y-3.2441
X2.7303Y-4.4921
X2.7323Y-4.2283
X2.7559Y-3.8583
X2.7638Y-2.9764
X2.8031Y-4.5591
X2.8661Y-3.7638
X2.8661Y-3.9921
X2.873Y-3.3888
X2.8819Y-3.5276
X2.8819Y-4.5748
X2.9055Y-3.2441
X2.9134Y-4.252
X2.9449Y-4.1969
X2.9528Y-4.7323
X2.9921Y-3.5827
X2.9921Y-5.9764
X3.0Y-3.8898
X3.0Y-4.252
X3.0472Y-2.9528
X3.0787Y-4.252
X3.0945Y-3.6929
X3.1339Y-2.7323
X3.1339Y-3.5197
X3.1506Y-3.4439
X3.1575Y-2.8819
X3.1654Y-4.252
X3.1673Y-3.4783
X3.1732Y-3.2441
X3.1811Y-4.5276
X3.2047Y-4.1732
X3.2205Y-3.622
X3.2441Y-4.2047
X3.2559Y-3.2047
X3.2677Y-4.0551
X3.2677Y-4.2835
X3.2785Y-3.5179
X3.2835Y-4.1575
X3.3094Y-3.5488
X3.3228Y-3.622
X3.3307Y-4.0787
X3.3386Y-3.122
X3.3386Y-4.2441
X3.3504Y-3.4902
X3.3533Y-3.5413
X3.3543Y-3.7402
X3.3799Y-3.5167
X3.3858Y-4.4646
X3.4055Y-3.4518
X3.4173Y-3.0394
X3.4331Y-4.8189
X3.437Y-3.4124
X3.4567Y-3.0039
X3.5118Y-3.7874
X3.5197Y-3.3622
X3.5295Y-3.9724
X3.5906Y-5.1496
X3.6063Y-3.3071
X3.622Y-5.0866
X3.6264Y-4.4444
X3.6278Y-4.6635
X3.6302Y-4.6341
X3.6306Y-4.6039
X3.6315Y-4.5733
X3.6334Y-4.5437
X3.6339Y-4.4803
X3.6339Y-4.5118
X3.6378Y-3.3622
X3.6614Y-3.8189
X3.6693Y-3.9055
X3.6929Y-5.252
X3.7087Y-5.0631
X3.7165Y-5.0945
X3.7205Y-3.1555
X3.7244Y-4.7402
X3.7362Y-3.4764
X3.748Y-3.2205
X3.748Y-3.6142
X3.748Y-5.315
X3.752Y-3.1693
X3.7559Y-3.4094
X3.7638Y-3.5059
X3.7697Y-4.5315
X3.7717Y-3.0709
X3.7756Y-4.3898
X3.7795Y-4.2598
X3.7795Y-4.5
X3.7835Y-3.1929
X3.8031Y-5.3622
X3.811Y-4.3465
X3.811Y-4.7402
X3.8169Y-5.1024
X3.8189Y-3.7244
X3.8268Y-2.7717
X3.8346Y-3.3543
X3.8366Y-4.4882
X3.8366Y-4.5315
X3.8642Y-4.0768
X3.874Y-2.9291
X3.8957Y-4.4882
X3.8976Y-5.2677
X3.8976Y-5.4567
X3.8996Y-4.0787
X3.9134Y-3.3307
X3.9134Y-3.3622
X3.9134Y-4.2126
X3.9134Y-4.7402
X3.9213Y-3.0157
X3.9311Y-4.5236
X3.937Y-5.126
X3.937Y-5.252
X3.9449Y-2.748
X3.9449Y-2.8976
X3.9547Y-3.2126
X3.9606Y-5.5197
X3.9774Y-3.7717
X4.0079Y-3.126
X4.0079Y-4.7402
X4.0079Y-5.5669
X4.0098Y-3.7795
X4.0098Y-4.5335
X4.0157Y-3.937
X4.0236Y-3.2776
X4.0236Y-6.5748
X4.0315Y-3.6063
X4.0472Y-3.8976
X4.0531Y-4.5217
X4.063Y-4.2756
X4.0866Y-5.4488
X4.0945Y-2.748
X4.0945Y-5.6535
X4.1024Y-4.7402
X4.1093Y-2.8376
X4.1181Y-4.5354
X4.1181Y-5.2913
X4.1181Y-5.4252
X4.126Y-3.1555
X4.1319Y-4.2303
X4.1417Y-3.7165
X4.1496Y-5.1024
X4.1732Y-5.4331
X4.1909Y-3.4626
X4.1929Y-3.502
X4.1949Y-4.5315
X4.1969Y-6.9134
X4.2047Y-5.7638
X4.2047Y-6.685
X4.2126Y-4.7402
X4.2136Y-5.1016
X4.2362Y-3.4528
X4.2431Y-5.1026
X4.2441Y-3.811
X4.2441Y-4.5295
X4.248Y-3.4134
X4.252Y-3.2835
X4.2598Y-2.7559
X4.2598Y-3.6142
X4.2598Y-4.1417
X4.2598Y-5.2362
X4.2677Y-5.6398
X4.2756Y-5.1024
X4.2756Y-5.8346
X4.2913Y-4.0866
X4.3071Y-2.874
X4.3071Y-5.1024
X4.3268Y-3.4173
X4.3307Y-3.685
X4.3307Y-4.2205
X4.3327Y-4.5217
X4.3386Y-5.1024
X4.3396Y-3.8022
X4.3465Y-4.5551
X4.3543Y-3.9055
X4.3543Y-4.2835
X4.36Y-4.4747
X4.3622Y-5.9213
X4.3622Y-6.7008
X4.3701Y-5.1024
X4.3711Y-3.7717
X4.378Y-2.8898
X4.3801Y-4.4963
X4.3839Y-3.8465
X4.3981Y-3.3903
X4.4016Y-3.2992
X4.4016Y-4.7323
X4.4016Y-5.1024
X4.4065Y-3.7411
X4.4114Y-3.813
X4.4134Y-5.6102
X4.4213Y-4.563
X4.4252Y-5.7953
X4.4311Y-5.1024
X4.4331Y-5.4016
X4.4409Y-3.1181
X4.4449Y-3.7785
X4.4488Y-5.9843
X4.4567Y-4.0
X4.4567Y-4.5226
X4.4567Y-4.748
X4.4606Y-5.1024
X4.4646Y-3.622
X4.4646Y-4.2677
X4.4646Y-5.7874
X4.4724Y-5.1496
X4.4724Y-5.6614
X4.498Y-4.5453
X4.5039Y-6.7008
X4.5118Y-6.0709
X4.5512Y-2.7638
X4.5591Y-3.7244
X4.5591Y-4.2835
X4.5591Y-6.1181
X4.5748Y-2.7165
X4.5748Y-3.3701
X4.5906Y-3.2362
X4.5906Y-5.7874
X4.5906Y-5.9764
X4.5984Y-4.1732
X4.5984Y-4.5034
X4.5984Y-5.0709
X4.6142Y-3.6457
X4.6201Y-2.9547
X4.6299Y-4.5276
X4.6378Y-4.4134
X4.6378Y-5.9606
X4.6457Y-5.1811
X4.6614Y-3.7795
X4.6693Y-4.6457
X4.6693Y-6.2205
X4.6693Y-6.5197
X4.6772Y-4.315
X4.6772Y-6.9685
X4.689Y-4.4193
X4.6929Y-2.7638
X4.6929Y-2.8976
X4.7008Y-3.0787
X4.7087Y-5.0472
X4.7244Y-3.3622
X4.7244Y-4.3622
X4.7323Y-6.2756
X4.7323Y-6.8268
X4.7392Y-4.0285
X4.7402Y-5.2835
X4.7402Y-5.8031
X4.7402Y-6.1732
X4.748Y-5.9606
X4.748Y-6.4646
X4.7559Y-4.6457
X4.7559Y-6.6063
X4.7638Y-4.5236
X4.7717Y-3.0768
X4.7795Y-4.0807
X4.7953Y-5.126
X4.8031Y-2.7402
X4.8031Y-6.6614
X4.8071Y-5.5827
X4.811Y-6.3701
X4.8346Y-5.9921
X4.8425Y-3.6378
X4.8425Y-4.5039
X4.8425Y-4.6457
X4.8425Y-5.7795
X4.8425Y-6.5433
X4.8504Y-5.063
X4.8504Y-5.2835
X4.8543Y-5.6299
X4.8661Y-3.2126
X4.8661Y-3.4567
X4.874Y-5.6693
X4.8819Y-5.1969
X4.8819Y-5.5591
X4.8841Y-6.4175
X4.8917Y-6.4606
X4.8976Y-6.937
X4.9055Y-6.7559
X4.9065Y-3.5659
X4.9291Y-2.7953
X4.9291Y-4.4724
X4.937Y-3.1024
X4.937Y-4.6457
X4.937Y-6.5886
X4.9449Y-5.8898
X4.9449Y-6.0709
X4.9449Y-6.3465
X4.9528Y-3.315
X4.9528Y-5.063
X4.9528Y-6.5039
X4.9606Y-5.6378
X4.9606Y-6.5512
X4.9685Y-4.2441
X4.9764Y-5.748
X4.9843Y-2.8268
X4.9843Y-5.5591
X4.9921Y-3.0079
X4.9921Y-4.1732
X4.9921Y-5.1969
X5.0079Y-6.8268
X5.0157Y-4.4094
X5.0157Y-4.6457
X5.0276Y-6.3819
X5.0315Y-2.7953
X5.0315Y-3.0472
X5.0453Y-3.7372
X5.0472Y-3.3543
X5.0482Y-2.7356
X5.0551Y-3.2441
X5.0787Y-5.4409
X5.0787Y-5.7795
X5.0866Y-3.4724
X5.0984Y-4.6457
X5.1083Y-2.8976
X5.1142Y-6.2697
X5.1181Y-5.063
X5.126Y-5.1969
X5.126Y-5.2756
X5.126Y-6.6142
X5.1339Y-5.8504
X5.1398Y-4.0039
X5.1417Y-3.1575
X5.1417Y-4.252
X5.1417Y-6.3819
X5.1447Y-3.5098
X5.1575Y-2.7904
X5.1575Y-4.4646
X5.1575Y-5.8031
X5.1693Y-6.3327
X5.1732Y-3.7008
X5.1811Y-5.4488
X5.186Y-3.503
X5.187Y-4.0236
X5.189Y-4.6457
X5.189Y-5.6614
X5.1969Y-3.378
X5.1969Y-6.5433
X5.2126Y-5.063
X5.2283Y-6.2835
X5.2343Y-3.4882
X5.2362Y-5.8425
X5.2362Y-5.9528
X5.2441Y-3.0748
X5.2598Y-5.1969
X5.2598Y-5.2756
X5.2756Y-2.874
X5.2776Y-3.8091
X5.2835Y-2.9764
X5.2835Y-3.2126
X5.2835Y-4.685
X5.2992Y-4.5118
X5.3071Y-5.7008
X5.3189Y-4.2992
X5.3307Y-3.315
X5.3465Y-3.9055
X5.3622Y-6.1437
X5.3622Y-6.5827
X5.374Y-5.063
X5.378Y-5.189
X5.378Y-5.2756
X5.378Y-5.5591
X5.3819Y-4.685
X5.3907Y-3.3327
X5.4094Y-3.7953
X5.4094Y-4.2992
X5.4173Y-5.7008
X5.4252Y-4.5118
X5.435Y-3.7264
X5.436Y-2.7356
X5.4409Y-5.4409
X5.4488Y-5.9528
X5.4567Y-6.2756
X5.4724Y-4.7008
X5.4724Y-5.063
X5.4744Y-2.7884
X5.4803Y-3.5551
X5.4803Y-3.6939
X5.4882Y-5.189
X5.4941Y-3.3297
X5.502Y-4.2992
X5.5039Y-3.4173
X5.5039Y-5.874
X5.5049Y-3.5817
X5.5049Y-3.7215
X5.5118Y-5.2756
X5.5354Y-3.8268
X5.5433Y-2.7165
X5.5433Y-4.685
X5.5472Y-3.3219
X5.5512Y-4.5118
X5.5512Y-6.1811
X5.5669Y-6.4016
X5.5837Y-3.5354
X5.5945Y-4.2992
X5.5945Y-4.685
X5.6024Y-5.0719
X5.6142Y-6.126
X5.624Y-5.0965
X5.6368Y-2.8484
X5.6388Y-2.8967
X5.6398Y-3.1299
X5.6437Y-4.685
X5.6457Y-5.0726
X5.6614Y-3.4961
X5.6673Y-5.0965
X5.6693Y-6.0709
X5.689Y-5.0728
X5.6929Y-4.5118
X5.6929Y-4.685
X5.7008Y-2.874
X5.7087Y-2.8031
X5.7087Y-3.2126
X5.7106Y-5.0965
X5.7165Y-5.4488
X5.7323Y-5.0728
X5.7323Y-6.0
X5.7539Y-5.0974
X5.7559Y-5.3071
X5.7756Y-5.0709
X5.7874Y-6.1654
X5.7972Y-5.0977
X5.8012Y-4.687
X5.8031Y-4.5118
X5.8031Y-5.7244
X5.8189Y-2.9843
X5.8189Y-5.0728
X5.8189Y-5.4567
X5.8406Y-5.0984
X5.8425Y-2.7165
X5.8533Y-3.7913
X5.8543Y-4.689
X5.8622Y-5.0728
X5.8661Y-5.2205
X5.8819Y-3.874
X5.8839Y-5.0984
X5.9035Y-4.689
X5.9213Y-2.8031
X5.9213Y-3.4961
X5.9213Y-5.8268
X5.9291Y-5.1181
X5.937Y-5.2913
X5.9528Y-4.5118
X5.9528Y-4.689
X5.9537Y-3.69
X5.9646Y-5.0748
X5.9764Y-3.2126
X5.9764Y-3.9685
X5.9843Y-5.7638
X5.9921Y-5.4252
X5.9921Y-5.4803
X5.998Y-5.0748
X6.0079Y-3.7638
X6.0079Y-5.6063
X6.0118Y-5.313
X6.0453Y-5.7165
X6.0465Y-5.6843
X6.063Y-4.689
X6.063Y-5.2362
X6.0709Y-4.2126
X6.0709Y-4.5118
X6.0709Y-5.5748
X6.0748Y-5.3917
X6.0866Y-4.0157
X6.0984Y-5.6969
X6.1024Y-4.1496
X6.1142Y-4.6909
X6.1496Y-5.0945
X6.1634Y-4.6929
X6.1811Y-3.4173
X6.189Y-3.7638
X6.1969Y-3.1102
X6.2047Y-2.7165
X6.2047Y-3.2205
X6.2126Y-3.5039
X6.2126Y-4.0236
X6.2126Y-4.5118
X6.2126Y-4.6929
X6.2205Y-4.1496
X6.2598Y-2.9291
X6.2835Y-5.4961
X6.2913Y-5.0551
X6.2992Y-5.4252
X6.31Y-4.7067
X6.3228Y-4.2047
X6.3474Y-4.7067
X6.3622Y-4.5039
X6.3858Y-3.6457
X6.3858Y-3.9449
X6.3858Y-4.0787
X6.3937Y-3.7953
X6.3937Y-5.0551
X6.4094Y-4.5984
X6.4173Y-3.4646
X6.4567Y-3.2677
X6.4646Y-2.9134
X6.4646Y-3.1181
X6.5433Y-5.2835
X6.5906Y-3.9449
X6.6378Y-2.6929
X6.7165Y-3.9921
X6.7244Y-3.2598
X6.7244Y-4.252
X6.7323Y-3.7402
X6.7402Y-3.0787
X6.7717Y-3.4646
X6.7795Y-2.8268
X6.7795Y-3.6378
X6.8002Y-3.5492
X6.8268Y-4.1417
X6.8504Y-2.6929
X6.9291Y-4.2992
X6.9843Y-4.0157
X6.9843Y-4.8346
X7.0394Y-3.5906
X7.0472Y-2.685
X7.0472Y-3.3858
X7.0472Y-3.5039
X7.0472Y-3.7559
X7.0551Y-2.7638
X7.0709Y-3.0236
X7.0709Y-3.2362
X7.1102Y-4.7165
X7.124Y-3.5374
X7.2126Y-4.5669
X7.2362Y-3.063
X7.252Y-3.126
X7.252Y-4.1417
X7.2598Y-3.6142
X7.2598Y-3.7795
X7.2598Y-3.9528
X7.2913Y-2.9764
X7.315Y-3.0315
X7.4252Y-3.5354
X7.4331Y-2.6299
X7.4331Y-3.0
X7.4331Y-3.0866
X7.4331Y-3.252
X7.4331Y-3.3386
X7.5197Y-3.4488
X7.5512Y-3.189
X7.622Y-4.1575
X7.7165Y-3.6772
X7.7402Y-2.9291
X7.748Y-3.1654
X7.748Y-3.4331
T2
X2.2953Y-3.8002
X2.5876Y-4.128
X3.2106Y-4.0817
X3.3396Y-2.6969
X3.4252Y-3.9685
X3.4882Y-4.1969
X3.5039Y-5.3268
X3.5315Y-5.3583
X3.563Y-5.3898
X3.6024Y-5.4258
X3.6299Y-5.4528
X3.6929Y-3.435
X3.6929Y-3.7717
X3.7087Y-5.5276
X3.7402Y-5.563
X3.748Y-3.2756
X3.7717Y-5.5984
X3.8031Y-5.6299
X3.8189Y-3.8898
X3.8228Y-2.7028
X3.8386Y-5.6535
X3.874Y-3.1417
X3.9134Y-5.7323
X3.9291Y-3.0866
X3.9428Y-3.9979
X3.9449Y-5.7638
X3.9764Y-5.7992
X3.9921Y-4.0472
X4.0079Y-5.8307
X4.0157Y-3.0
X4.0433Y-5.8543
X4.0709Y-2.9449
X4.1181Y-5.9291
X4.1457Y-5.9646
X4.1752Y-5.998
X4.2126Y-4.189
X4.2126Y-6.0354
X4.2441Y-6.0591
X4.3189Y-6.1299
X4.3465Y-6.1614
X4.378Y-6.2008
X4.4094Y-6.2323
X4.4203Y-2.81
X4.4449Y-6.2598
X4.503Y-2.812
X4.5118Y-5.1024
X4.5157Y-6.3346
X4.5512Y-4.7461
X4.5512Y-6.3701
X4.5866Y-6.4055
X4.6142Y-6.4331
X4.6457Y-2.8396
X4.6496Y-6.4646
X4.7323Y-2.8268
X4.7668Y-4.2332
X4.8825Y-2.9741
X4.9006Y-4.0994
X4.9055Y-6.3228
X4.9055Y-6.3858
X4.9298Y-3.0213
X4.94Y-4.06
X5.0236Y-3.1181
X5.0472Y-3.9508
X5.0866Y-3.9134
X5.0984Y-3.1929
X5.1535Y-3.4557
X5.189Y-3.7657
X5.2116Y-3.4557
X5.2116Y-3.7884
X5.2402Y-5.5669
X5.2953Y-5.5827
X5.5325Y-6.0108
X5.6909Y-4.2992
X5.7362Y-5.7717
X5.7874Y-4.2992
X5.8228Y-5.685
X5.8799Y-4.2992
X5.9154Y-5.7825
X5.9606Y-5.3642
X5.9783Y-4.2992
X6.1346Y-5.4725
X6.1496Y-3.8967
X6.1555Y-4.1358
X6.1929Y-4.2992
X6.3563Y-5.5098
X6.3917Y-5.4744
X6.439Y-5.4744
X6.5453Y-5.2047
X6.5728Y-5.2323
X6.6161Y-5.2323
X6.6378Y-4.5906
X6.6693Y-4.5669
X6.7205Y-4.374
X6.748Y-4.3465
X7.2343Y-2.8937
X7.248Y-2.9252
X7.3071Y-3.1132
X7.3159Y-3.1506
T3
X1.5614Y-2.8669
X1.5614Y-2.9669
X1.5614Y-3.0669
X1.5614Y-3.1669
X1.5614Y-3.2669
X1.5614Y-3.3669
X1.5614Y-3.4669
X1.5614Y-3.5669
X1.5614Y-3.6669
X1.5614Y-3.7669
X1.6614Y-2.8669
X1.6614Y-2.9669
X1.6614Y-3.0669
X1.6614Y-3.1669
X1.6614Y-3.2669
X1.6614Y-3.3669
X1.6614Y-3.4669
X1.6614Y-3.5669
X1.6614Y-3.6669
X1.6614Y-3.7669
X2.1126Y-2.8646
X2.1126Y-2.9646
X2.1126Y-3.0646
X2.1126Y-3.1646
X2.1126Y-3.2646
X2.1126Y-3.3646
X2.1126Y-3.4646
X2.1126Y-3.5646
X2.1126Y-3.6646
X2.1126Y-3.7646
X2.2126Y-2.8646
X2.2126Y-2.9646
X2.2126Y-3.0646
X2.2126Y-3.1646
X2.2126Y-3.2646
X2.2126Y-3.3646
X2.2126Y-3.4646
X2.2126Y-3.5646
X2.2126Y-3.6646
X2.2126Y-3.7646
X6.0965Y-2.7612
X6.0965Y-2.8612
X6.0965Y-2.9612
X6.0965Y-3.0612
X6.0965Y-3.1612
X6.0965Y-3.2612
T4
X2.8147Y-5.1097
X2.9483Y-4.9761
X4.9621Y-6.6818
X5.0234Y-6.6205
X5.0846Y-6.5593
X5.0902Y-6.7486
X5.1459Y-6.498
X5.1514Y-6.6873
X5.2071Y-6.4368
X5.2127Y-6.6261
X5.2684Y-6.3756
X5.2739Y-6.5649
X5.3296Y-6.3143
X5.3352Y-6.5036
X5.3908Y-6.2531
X5.3964Y-6.4424
X5.4521Y-6.1918
X5.4577Y-6.3811
X5.5133Y-6.1306
X5.5189Y-6.3199
X5.5746Y-6.0693
X5.5802Y-6.2586
X5.6358Y-6.0081
X5.6414Y-6.1974
X5.6971Y-5.9468
X5.7026Y-6.1361
X5.7583Y-5.8856
X5.7639Y-6.0749
X5.8251Y-6.0136
X5.8864Y-5.9524
T5
X2.9401Y-5.6898
X3.0375Y-5.5924
X3.0375Y-5.7872
X3.1349Y-5.6898
X3.1349Y-5.8847
X3.2324Y-5.7872
X3.2324Y-5.9821
X3.3298Y-5.8847
X3.3298Y-6.0795
X3.4272Y-5.9821
X3.4272Y-6.177
X3.5247Y-6.0795
X3.5247Y-6.2744
X3.6221Y-6.177
X3.6221Y-6.3718
X3.7195Y-6.2744
X3.7195Y-6.4693
X3.817Y-6.3718
X3.817Y-6.5667
X3.9144Y-6.4693
X6.4203Y-4.9371
X6.5177Y-4.8397
X6.5177Y-5.0345
X6.6152Y-4.7422
X6.6152Y-4.9371
X6.7126Y-4.6448
X6.7126Y-4.8397
X6.8101Y-4.5474
X6.8101Y-4.7422
X6.9075Y-4.4499
X6.9075Y-4.6448
X7.0049Y-4.5474
T6
X1.7082Y-4.4606
X1.8056Y-4.3632
X1.8056Y-4.5581
X1.9031Y-4.4606
X1.9031Y-4.6555
X2.0005Y-4.5581
X2.0005Y-4.7529
X2.0979Y-4.6555
T7
X2.7033Y-4.9984
X2.837Y-4.8648
X3.1154Y-5.2768
T8
X5.2071Y-6.9546
X6.0618Y-6.0999
T9
X6.3897Y-5.2962
X7.2666Y-4.4193
M30
