%TF.GenerationSoftware,KiCad,Pcbnew,8.0.3*%
%TF.CreationDate,2025-01-15T13:42:05-05:00*%
%TF.ProjectId,EIM,45494d2e-6b69-4636-9164-5f7063625858,rev?*%
%TF.SameCoordinates,Original*%
%TF.FileFunction,Paste,Top*%
%TF.FilePolarity,Positive*%
%FSLAX46Y46*%
G04 Gerber Fmt 4.6, Leading zero omitted, Abs format (unit mm)*
G04 Created by KiCad (PCBNEW 8.0.3) date 2025-01-15 13:42:05*
%MOMM*%
%LPD*%
G01*
G04 APERTURE LIST*
G04 Aperture macros list*
%AMRoundRect*
0 Rectangle with rounded corners*
0 $1 Rounding radius*
0 $2 $3 $4 $5 $6 $7 $8 $9 X,Y pos of 4 corners*
0 Add a 4 corners polygon primitive as box body*
4,1,4,$2,$3,$4,$5,$6,$7,$8,$9,$2,$3,0*
0 Add four circle primitives for the rounded corners*
1,1,$1+$1,$2,$3*
1,1,$1+$1,$4,$5*
1,1,$1+$1,$6,$7*
1,1,$1+$1,$8,$9*
0 Add four rect primitives between the rounded corners*
20,1,$1+$1,$2,$3,$4,$5,0*
20,1,$1+$1,$4,$5,$6,$7,0*
20,1,$1+$1,$6,$7,$8,$9,0*
20,1,$1+$1,$8,$9,$2,$3,0*%
G04 Aperture macros list end*
%ADD10RoundRect,0.250000X0.350000X0.450000X-0.350000X0.450000X-0.350000X-0.450000X0.350000X-0.450000X0*%
%ADD11RoundRect,0.250000X-0.350000X-0.450000X0.350000X-0.450000X0.350000X0.450000X-0.350000X0.450000X0*%
%ADD12R,0.700000X1.550000*%
%ADD13RoundRect,0.200000X0.494975X0.777817X-0.777817X-0.494975X-0.494975X-0.777817X0.777817X0.494975X0*%
%ADD14RoundRect,0.250000X0.106066X1.697056X-1.697056X-0.106066X-0.106066X-1.697056X1.697056X0.106066X0*%
%ADD15RoundRect,0.250000X-0.097227X0.574524X-0.574524X0.097227X0.097227X-0.574524X0.574524X-0.097227X0*%
%ADD16RoundRect,0.250000X0.574524X0.097227X0.097227X0.574524X-0.574524X-0.097227X-0.097227X-0.574524X0*%
%ADD17RoundRect,0.250000X-0.475000X0.337500X-0.475000X-0.337500X0.475000X-0.337500X0.475000X0.337500X0*%
%ADD18RoundRect,0.250000X-0.450000X0.350000X-0.450000X-0.350000X0.450000X-0.350000X0.450000X0.350000X0*%
%ADD19RoundRect,0.150000X0.587500X0.150000X-0.587500X0.150000X-0.587500X-0.150000X0.587500X-0.150000X0*%
%ADD20RoundRect,0.112500X-0.053033X-0.212132X0.212132X0.053033X0.053033X0.212132X-0.212132X-0.053033X0*%
%ADD21RoundRect,0.250000X0.475000X-0.337500X0.475000X0.337500X-0.475000X0.337500X-0.475000X-0.337500X0*%
%ADD22RoundRect,0.243750X-0.243750X-0.456250X0.243750X-0.456250X0.243750X0.456250X-0.243750X0.456250X0*%
%ADD23R,1.550000X1.300000*%
%ADD24RoundRect,0.250000X-0.450000X0.400000X-0.450000X-0.400000X0.450000X-0.400000X0.450000X0.400000X0*%
%ADD25RoundRect,0.112500X-0.112500X0.187500X-0.112500X-0.187500X0.112500X-0.187500X0.112500X0.187500X0*%
%ADD26RoundRect,0.250000X-0.337500X-0.475000X0.337500X-0.475000X0.337500X0.475000X-0.337500X0.475000X0*%
%ADD27R,0.500000X0.400000*%
%ADD28R,0.500000X0.750000*%
%ADD29R,0.500000X1.300000*%
%ADD30RoundRect,0.250000X0.450000X-0.350000X0.450000X0.350000X-0.450000X0.350000X-0.450000X-0.350000X0*%
%ADD31RoundRect,0.250000X-0.325000X-0.450000X0.325000X-0.450000X0.325000X0.450000X-0.325000X0.450000X0*%
%ADD32RoundRect,0.112500X0.112500X-0.187500X0.112500X0.187500X-0.112500X0.187500X-0.112500X-0.187500X0*%
%ADD33RoundRect,0.250000X0.550000X-1.050000X0.550000X1.050000X-0.550000X1.050000X-0.550000X-1.050000X0*%
%ADD34RoundRect,0.150000X-0.587500X-0.150000X0.587500X-0.150000X0.587500X0.150000X-0.587500X0.150000X0*%
%ADD35RoundRect,0.250000X-0.412500X-0.650000X0.412500X-0.650000X0.412500X0.650000X-0.412500X0.650000X0*%
%ADD36RoundRect,0.250000X-0.625000X0.375000X-0.625000X-0.375000X0.625000X-0.375000X0.625000X0.375000X0*%
%ADD37RoundRect,0.250000X0.070711X-0.565685X0.565685X-0.070711X-0.070711X0.565685X-0.565685X0.070711X0*%
%ADD38RoundRect,0.250000X-1.246276X2.253903X-2.253903X1.246276X1.246276X-2.253903X2.253903X-1.246276X0*%
%ADD39RoundRect,0.250000X0.097227X-0.574524X0.574524X-0.097227X-0.097227X0.574524X-0.574524X0.097227X0*%
%ADD40RoundRect,0.250000X0.176777X-0.707107X0.707107X-0.176777X-0.176777X0.707107X-0.707107X0.176777X0*%
%ADD41RoundRect,0.075000X-0.415425X-0.521491X0.521491X0.415425X0.415425X0.521491X-0.521491X-0.415425X0*%
%ADD42RoundRect,0.075000X0.415425X-0.521491X0.521491X-0.415425X-0.415425X0.521491X-0.521491X0.415425X0*%
%ADD43R,2.790000X0.740000*%
%ADD44RoundRect,0.250000X1.263953X0.751301X0.751301X1.263953X-1.263953X-0.751301X-0.751301X-1.263953X0*%
%ADD45RoundRect,0.250000X-0.574524X-0.097227X-0.097227X-0.574524X0.574524X0.097227X0.097227X0.574524X0*%
%ADD46R,1.300000X1.100000*%
%ADD47RoundRect,0.250000X-1.000000X-0.900000X1.000000X-0.900000X1.000000X0.900000X-1.000000X0.900000X0*%
%ADD48RoundRect,0.150000X0.825000X0.150000X-0.825000X0.150000X-0.825000X-0.150000X0.825000X-0.150000X0*%
%ADD49RoundRect,0.150000X-0.825000X-0.150000X0.825000X-0.150000X0.825000X0.150000X-0.825000X0.150000X0*%
%ADD50RoundRect,0.112500X-0.187500X-0.112500X0.187500X-0.112500X0.187500X0.112500X-0.187500X0.112500X0*%
%ADD51RoundRect,0.150000X0.512500X0.150000X-0.512500X0.150000X-0.512500X-0.150000X0.512500X-0.150000X0*%
%ADD52RoundRect,0.250000X-0.167938X0.751301X-0.751301X0.167938X0.167938X-0.751301X0.751301X-0.167938X0*%
%ADD53R,2.600000X8.200000*%
%ADD54RoundRect,0.250000X0.650000X-0.412500X0.650000X0.412500X-0.650000X0.412500X-0.650000X-0.412500X0*%
%ADD55RoundRect,0.250000X-0.712500X-2.475000X0.712500X-2.475000X0.712500X2.475000X-0.712500X2.475000X0*%
%ADD56RoundRect,0.150000X-0.512500X-0.150000X0.512500X-0.150000X0.512500X0.150000X-0.512500X0.150000X0*%
%ADD57RoundRect,0.250000X0.751301X0.167938X0.167938X0.751301X-0.751301X-0.167938X-0.167938X-0.751301X0*%
%ADD58RoundRect,0.250000X0.712500X2.475000X-0.712500X2.475000X-0.712500X-2.475000X0.712500X-2.475000X0*%
%ADD59RoundRect,0.250000X0.337500X0.475000X-0.337500X0.475000X-0.337500X-0.475000X0.337500X-0.475000X0*%
%ADD60R,1.000000X0.800000*%
G04 APERTURE END LIST*
D10*
%TO.C,R53*%
X120250000Y-153000000D03*
X118250000Y-153000000D03*
%TD*%
D11*
%TO.C,R15*%
X78075000Y-103575000D03*
X80075000Y-103575000D03*
%TD*%
D12*
%TO.C,IC3*%
X129895000Y-135775000D03*
X131165000Y-135775000D03*
X132435000Y-135775000D03*
X133705000Y-135775000D03*
X133705000Y-130225000D03*
X132435000Y-130225000D03*
X131165000Y-130225000D03*
X129895000Y-130225000D03*
%TD*%
D13*
%TO.C,U8*%
X104059261Y-147377350D03*
X103253159Y-146571249D03*
D14*
X100255026Y-150113854D03*
X98098350Y-147957178D03*
X97886218Y-152482661D03*
X95729543Y-150325986D03*
D13*
X101640955Y-144959045D03*
X100834854Y-144152943D03*
%TD*%
D12*
%TO.C,IC10*%
X136495000Y-135775000D03*
X137765000Y-135775000D03*
X139035000Y-135775000D03*
X140305000Y-135775000D03*
X140305000Y-130225000D03*
X139035000Y-130225000D03*
X137765000Y-130225000D03*
X136495000Y-130225000D03*
%TD*%
D10*
%TO.C,R27*%
X73750000Y-114000000D03*
X71750000Y-114000000D03*
%TD*%
%TO.C,R38*%
X115525000Y-141525000D03*
X113525000Y-141525000D03*
%TD*%
D15*
%TO.C,C7*%
X105733623Y-106666377D03*
X104266377Y-108133623D03*
%TD*%
D16*
%TO.C,C16*%
X103333623Y-76133623D03*
X101866377Y-74666377D03*
%TD*%
D17*
%TO.C,C38*%
X104200000Y-117125000D03*
X104200000Y-119200000D03*
%TD*%
D10*
%TO.C,R4*%
X75700000Y-73200000D03*
X73700000Y-73200000D03*
%TD*%
D18*
%TO.C,R25*%
X126400000Y-117200000D03*
X126400000Y-119200000D03*
%TD*%
D19*
%TO.C,Q5*%
X115687500Y-145950000D03*
X115687500Y-144050000D03*
X113812499Y-145000000D03*
%TD*%
D17*
%TO.C,C41*%
X97000000Y-117125000D03*
X97000000Y-119200000D03*
%TD*%
D20*
%TO.C,D29*%
X121857538Y-166542462D03*
X123342462Y-165057538D03*
%TD*%
D13*
%TO.C,U9*%
X109159261Y-152527350D03*
X108353159Y-151721249D03*
D14*
X105355026Y-155263854D03*
X103198350Y-153107178D03*
X102986218Y-157632661D03*
X100829543Y-155475986D03*
D13*
X106740955Y-150109045D03*
X105934854Y-149302943D03*
%TD*%
D21*
%TO.C,C27*%
X185100002Y-73000003D03*
X185100002Y-70925003D03*
%TD*%
D22*
%TO.C,D2*%
X83262500Y-70300000D03*
X85137500Y-70300000D03*
%TD*%
D23*
%TO.C,SW2*%
X158845000Y-86525000D03*
X166805000Y-86525000D03*
X158845000Y-91025000D03*
X166805000Y-91025000D03*
%TD*%
D24*
%TO.C,D10*%
X67675000Y-100500000D03*
X67675000Y-103400000D03*
%TD*%
D25*
%TO.C,D25*%
X127300000Y-142750000D03*
X127300000Y-144850000D03*
%TD*%
D26*
%TO.C,C26*%
X184962502Y-84900003D03*
X187037502Y-84900003D03*
%TD*%
D27*
%TO.C,S3*%
X153400001Y-143350000D03*
D28*
X153400000Y-142400000D03*
D27*
X153400001Y-141450000D03*
X150999999Y-141450000D03*
D29*
X150999999Y-142900000D03*
%TD*%
D30*
%TO.C,R23*%
X133200000Y-140000000D03*
X133200000Y-138000000D03*
%TD*%
D31*
%TO.C,FB2*%
X163062500Y-70375000D03*
X165112500Y-70375000D03*
%TD*%
D18*
%TO.C,R62*%
X149150000Y-105900000D03*
X149150000Y-107900000D03*
%TD*%
%TO.C,R24*%
X124200000Y-117200000D03*
X124200000Y-119200000D03*
%TD*%
D16*
%TO.C,C18*%
X95133623Y-84333623D03*
X93666377Y-82866377D03*
%TD*%
D10*
%TO.C,R42*%
X120000000Y-146000000D03*
X118000000Y-146000000D03*
%TD*%
D32*
%TO.C,D21*%
X145650000Y-142150000D03*
X145650000Y-140050000D03*
%TD*%
D26*
%TO.C,C32*%
X78062500Y-106100000D03*
X80137500Y-106100000D03*
%TD*%
D19*
%TO.C,Q2*%
X102087500Y-132462501D03*
X102087500Y-130562501D03*
X100212499Y-131512501D03*
%TD*%
D22*
%TO.C,D5*%
X69562500Y-73200000D03*
X71437500Y-73200000D03*
%TD*%
D10*
%TO.C,R61*%
X150000000Y-135750000D03*
X148000000Y-135750000D03*
%TD*%
D11*
%TO.C,R19*%
X58250000Y-102900000D03*
X60250000Y-102900000D03*
%TD*%
D13*
%TO.C,U7*%
X98872002Y-142221284D03*
X98065900Y-141415183D03*
D14*
X95067767Y-144957788D03*
X92911091Y-142801112D03*
X92698959Y-147326595D03*
X90542284Y-145169920D03*
D13*
X96453696Y-139802979D03*
X95647595Y-138996877D03*
%TD*%
D18*
%TO.C,R78*%
X146950000Y-97000000D03*
X146950000Y-99000000D03*
%TD*%
D12*
%TO.C,IC9*%
X123295000Y-135775000D03*
X124565000Y-135775000D03*
X125835000Y-135775000D03*
X127105000Y-135775000D03*
X127105000Y-130225000D03*
X125835000Y-130225000D03*
X124565000Y-130225000D03*
X123295000Y-130225000D03*
%TD*%
D33*
%TO.C,C29*%
X176600002Y-73300003D03*
X176600002Y-69700003D03*
%TD*%
D17*
%TO.C,C46*%
X61300000Y-114562500D03*
X61300000Y-116637500D03*
%TD*%
D18*
%TO.C,R12*%
X91000000Y-97800000D03*
X91000000Y-99800000D03*
%TD*%
D34*
%TO.C,Q1*%
X68624999Y-116300000D03*
X68624999Y-118200000D03*
X70500000Y-117250000D03*
%TD*%
D10*
%TO.C,R46*%
X124312500Y-150450000D03*
X122312500Y-150450000D03*
%TD*%
D18*
%TO.C,R71*%
X141800000Y-105900000D03*
X141800000Y-107900000D03*
%TD*%
D35*
%TO.C,C24*%
X187237502Y-76300003D03*
X190362502Y-76300003D03*
%TD*%
D17*
%TO.C,C37*%
X106600000Y-117125000D03*
X106600000Y-119200000D03*
%TD*%
D27*
%TO.C,S2*%
X153400000Y-139750000D03*
D28*
X153399999Y-138800000D03*
D27*
X153400000Y-137850000D03*
X150999998Y-137850000D03*
D29*
X150999998Y-139300000D03*
%TD*%
D36*
%TO.C,F1*%
X155500000Y-140300001D03*
X155500000Y-143099999D03*
%TD*%
D30*
%TO.C,R73*%
X126800000Y-140000000D03*
X126800000Y-138000000D03*
%TD*%
D10*
%TO.C,R32*%
X98000000Y-132500000D03*
X96000000Y-132500000D03*
%TD*%
%TO.C,R47*%
X124312500Y-148450000D03*
X122312500Y-148450000D03*
%TD*%
D12*
%TO.C,IC7*%
X147400000Y-117500000D03*
X148670000Y-117500000D03*
X149940000Y-117500000D03*
X151210000Y-117500000D03*
X151210000Y-111950000D03*
X149940000Y-111950000D03*
X148670000Y-111950000D03*
X147400000Y-111950000D03*
%TD*%
D37*
%TO.C,R64*%
X142142893Y-148857107D03*
X143557107Y-147442893D03*
%TD*%
D10*
%TO.C,R49*%
X115812500Y-148450000D03*
X113812500Y-148450000D03*
%TD*%
%TO.C,R31*%
X106150000Y-130500000D03*
X104150000Y-130500000D03*
%TD*%
D38*
%TO.C,F2*%
X88895324Y-125104676D03*
X84104676Y-129895324D03*
%TD*%
D13*
%TO.C,U5*%
X86832053Y-119892355D03*
X86025951Y-119086254D03*
D14*
X83027818Y-122628859D03*
X80871142Y-120472183D03*
X80659010Y-124997666D03*
X78502335Y-122840991D03*
D13*
X84413747Y-117474050D03*
X83607646Y-116667948D03*
%TD*%
D39*
%TO.C,C15*%
X119066377Y-71733623D03*
X120533623Y-70266377D03*
%TD*%
D30*
%TO.C,R89*%
X136600000Y-140100000D03*
X136600000Y-138100000D03*
%TD*%
D17*
%TO.C,C45*%
X91775000Y-90750000D03*
X91775000Y-92825000D03*
%TD*%
D21*
%TO.C,C48*%
X113200000Y-113837500D03*
X113200000Y-111762500D03*
%TD*%
D25*
%TO.C,D14*%
X133200000Y-142750000D03*
X133200000Y-144850000D03*
%TD*%
D10*
%TO.C,R50*%
X124500000Y-159250000D03*
X122500000Y-159250000D03*
%TD*%
%TO.C,R20*%
X67425000Y-97875000D03*
X65425000Y-97875000D03*
%TD*%
D30*
%TO.C,R68*%
X134500000Y-156000000D03*
X134500000Y-154000000D03*
%TD*%
D10*
%TO.C,R51*%
X124500000Y-157250000D03*
X122500000Y-157250000D03*
%TD*%
D40*
%TO.C,F5*%
X116210051Y-169789949D03*
X118189949Y-167810051D03*
%TD*%
D10*
%TO.C,R44*%
X111500000Y-146000000D03*
X109500000Y-146000000D03*
%TD*%
D18*
%TO.C,R84*%
X108800000Y-117200000D03*
X108800000Y-119200000D03*
%TD*%
D30*
%TO.C,R56*%
X130300000Y-156050000D03*
X130300000Y-154050000D03*
%TD*%
D41*
%TO.C,U1*%
X99595220Y-91352342D03*
X99948773Y-91705895D03*
X100302326Y-92059449D03*
X100655880Y-92413002D03*
X101009433Y-92766555D03*
X101362987Y-93120109D03*
X101716540Y-93473662D03*
X102070093Y-93827215D03*
X102423647Y-94180769D03*
X102777200Y-94534322D03*
X103130754Y-94887876D03*
X103484307Y-95241429D03*
X103837860Y-95594982D03*
X104191414Y-95948536D03*
X104544967Y-96302089D03*
X104898520Y-96655643D03*
X105252074Y-97009196D03*
X105605627Y-97362749D03*
X105959181Y-97716303D03*
X106312734Y-98069856D03*
X106666287Y-98423410D03*
X107019841Y-98776963D03*
X107373394Y-99130516D03*
X107726948Y-99484070D03*
X108080501Y-99837623D03*
X108434054Y-100191176D03*
X108787608Y-100544730D03*
X109141161Y-100898283D03*
X109494715Y-101251837D03*
X109848268Y-101605390D03*
X110201821Y-101958943D03*
X110555375Y-102312497D03*
X110908928Y-102666050D03*
X111262481Y-103019604D03*
X111616035Y-103373157D03*
X111969588Y-103726710D03*
D42*
X114674272Y-103726710D03*
X115027825Y-103373157D03*
X115381379Y-103019604D03*
X115734932Y-102666050D03*
X116088485Y-102312497D03*
X116442039Y-101958943D03*
X116795592Y-101605390D03*
X117149145Y-101251837D03*
X117502699Y-100898283D03*
X117856252Y-100544730D03*
X118209806Y-100191176D03*
X118563359Y-99837623D03*
X118916912Y-99484070D03*
X119270466Y-99130516D03*
X119624019Y-98776963D03*
X119977573Y-98423410D03*
X120331126Y-98069856D03*
X120684679Y-97716303D03*
X121038233Y-97362749D03*
X121391786Y-97009196D03*
X121745340Y-96655643D03*
X122098893Y-96302089D03*
X122452446Y-95948536D03*
X122806000Y-95594982D03*
X123159553Y-95241429D03*
X123513106Y-94887876D03*
X123866660Y-94534322D03*
X124220213Y-94180769D03*
X124573767Y-93827215D03*
X124927320Y-93473662D03*
X125280873Y-93120109D03*
X125634427Y-92766555D03*
X125987980Y-92413002D03*
X126341534Y-92059449D03*
X126695087Y-91705895D03*
X127048640Y-91352342D03*
D41*
X127048640Y-88647658D03*
X126695087Y-88294105D03*
X126341534Y-87940551D03*
X125987980Y-87586998D03*
X125634427Y-87233445D03*
X125280873Y-86879891D03*
X124927320Y-86526338D03*
X124573767Y-86172785D03*
X124220213Y-85819231D03*
X123866660Y-85465678D03*
X123513106Y-85112124D03*
X123159553Y-84758571D03*
X122806000Y-84405018D03*
X122452446Y-84051464D03*
X122098893Y-83697911D03*
X121745340Y-83344357D03*
X121391786Y-82990804D03*
X121038233Y-82637251D03*
X120684679Y-82283697D03*
X120331126Y-81930144D03*
X119977573Y-81576590D03*
X119624019Y-81223037D03*
X119270466Y-80869484D03*
X118916912Y-80515930D03*
X118563359Y-80162377D03*
X118209806Y-79808824D03*
X117856252Y-79455270D03*
X117502699Y-79101717D03*
X117149145Y-78748163D03*
X116795592Y-78394610D03*
X116442039Y-78041057D03*
X116088485Y-77687503D03*
X115734932Y-77333950D03*
X115381379Y-76980396D03*
X115027825Y-76626843D03*
X114674272Y-76273290D03*
D42*
X111969588Y-76273290D03*
X111616035Y-76626843D03*
X111262481Y-76980396D03*
X110908928Y-77333950D03*
X110555375Y-77687503D03*
X110201821Y-78041057D03*
X109848268Y-78394610D03*
X109494715Y-78748163D03*
X109141161Y-79101717D03*
X108787608Y-79455270D03*
X108434054Y-79808824D03*
X108080501Y-80162377D03*
X107726948Y-80515930D03*
X107373394Y-80869484D03*
X107019841Y-81223037D03*
X106666287Y-81576590D03*
X106312734Y-81930144D03*
X105959181Y-82283697D03*
X105605627Y-82637251D03*
X105252074Y-82990804D03*
X104898520Y-83344357D03*
X104544967Y-83697911D03*
X104191414Y-84051464D03*
X103837860Y-84405018D03*
X103484307Y-84758571D03*
X103130754Y-85112124D03*
X102777200Y-85465678D03*
X102423647Y-85819231D03*
X102070093Y-86172785D03*
X101716540Y-86526338D03*
X101362987Y-86879891D03*
X101009433Y-87233445D03*
X100655880Y-87586998D03*
X100302326Y-87940551D03*
X99948773Y-88294105D03*
X99595220Y-88647658D03*
%TD*%
D25*
%TO.C,D11*%
X53025000Y-110600000D03*
X53025000Y-112700000D03*
%TD*%
D18*
%TO.C,R70*%
X139400000Y-105900000D03*
X139400000Y-107900000D03*
%TD*%
D43*
%TO.C,J7*%
X137017500Y-71040000D03*
X141087500Y-71040000D03*
X137017500Y-72310000D03*
X141087500Y-72310000D03*
X137017500Y-73580000D03*
X141087500Y-73580000D03*
X137017500Y-74850000D03*
X141087500Y-74850000D03*
X137017500Y-76120000D03*
X141087500Y-76120000D03*
X137017500Y-77390000D03*
X141087500Y-77390000D03*
X137017500Y-78660000D03*
X141087500Y-78660000D03*
%TD*%
D30*
%TO.C,R72*%
X123600000Y-140000000D03*
X123600000Y-138000000D03*
%TD*%
D44*
%TO.C,R82*%
X122294804Y-175494804D03*
X118105196Y-171305196D03*
%TD*%
D21*
%TO.C,C47*%
X115600000Y-113837500D03*
X115600000Y-111762500D03*
%TD*%
D25*
%TO.C,D24*%
X124600000Y-142750000D03*
X124600000Y-144850000D03*
%TD*%
D11*
%TO.C,R6*%
X76000000Y-79300000D03*
X78000000Y-79300000D03*
%TD*%
D10*
%TO.C,R40*%
X107275000Y-141525000D03*
X105275000Y-141525000D03*
%TD*%
D45*
%TO.C,C12*%
X135291377Y-91866377D03*
X136758623Y-93333623D03*
%TD*%
D10*
%TO.C,R52*%
X120250000Y-155000000D03*
X118250000Y-155000000D03*
%TD*%
%TO.C,R37*%
X102374999Y-135050000D03*
X100374999Y-135050000D03*
%TD*%
%TO.C,R34*%
X110750000Y-137000000D03*
X108750000Y-137000000D03*
%TD*%
D17*
%TO.C,C19*%
X83800000Y-97762500D03*
X83800000Y-99837500D03*
%TD*%
%TO.C,C39*%
X101800000Y-117125000D03*
X101800000Y-119200000D03*
%TD*%
D46*
%TO.C,X1*%
X92550000Y-108800000D03*
X94650000Y-108800000D03*
X94650000Y-107150000D03*
X92550000Y-107150000D03*
%TD*%
D22*
%TO.C,D4*%
X83325000Y-73200000D03*
X85200000Y-73200000D03*
%TD*%
D10*
%TO.C,R14*%
X164025001Y-108875000D03*
X162025001Y-108875000D03*
%TD*%
D18*
%TO.C,R11*%
X97400000Y-107000000D03*
X97400000Y-109000000D03*
%TD*%
D47*
%TO.C,D6*%
X176900000Y-97700000D03*
X181200000Y-97700000D03*
%TD*%
D12*
%TO.C,IC5*%
X134200000Y-117500000D03*
X135470000Y-117500000D03*
X136740000Y-117500000D03*
X138010000Y-117500000D03*
X138010000Y-111950000D03*
X136740000Y-111950000D03*
X135470000Y-111950000D03*
X134200000Y-111950000D03*
%TD*%
D31*
%TO.C,FB1*%
X101775001Y-111000000D03*
X103824999Y-111000000D03*
%TD*%
D48*
%TO.C,IC2*%
X75500000Y-96220000D03*
X75500000Y-94950000D03*
X75500000Y-93680000D03*
X75500000Y-92410000D03*
X70550000Y-92410000D03*
X70550000Y-93680000D03*
X70550000Y-94950000D03*
X70550000Y-96220000D03*
%TD*%
D49*
%TO.C,U4*%
X159925000Y-101345000D03*
X159925000Y-102615000D03*
X159925000Y-103885000D03*
X159925000Y-105155000D03*
X164875000Y-105155000D03*
X164875000Y-103885000D03*
X164875000Y-102615000D03*
X164875000Y-101345000D03*
%TD*%
D18*
%TO.C,R74*%
X119800000Y-117200000D03*
X119800000Y-119200000D03*
%TD*%
D50*
%TO.C,D26*%
X63700000Y-120000000D03*
X65800000Y-120000000D03*
%TD*%
D30*
%TO.C,R83*%
X111000000Y-119200000D03*
X111000000Y-117200000D03*
%TD*%
D51*
%TO.C,D12*%
X52362500Y-107337499D03*
X52362500Y-105437501D03*
X50087500Y-106387500D03*
%TD*%
D20*
%TO.C,D27*%
X123315076Y-168084924D03*
X124800000Y-166600000D03*
%TD*%
D30*
%TO.C,R65*%
X145700000Y-145750000D03*
X145700000Y-143750000D03*
%TD*%
%TO.C,R85*%
X65500000Y-116600000D03*
X65500000Y-114600000D03*
%TD*%
D33*
%TO.C,C28*%
X181600002Y-73300003D03*
X181600002Y-69700003D03*
%TD*%
D10*
%TO.C,R13*%
X168025001Y-108875000D03*
X166025001Y-108875000D03*
%TD*%
D39*
%TO.C,C14*%
X124082754Y-76675000D03*
X125550000Y-75207754D03*
%TD*%
D32*
%TO.C,D16*%
X130300000Y-152200000D03*
X130300000Y-150100000D03*
%TD*%
D30*
%TO.C,R79*%
X144750000Y-99000000D03*
X144750000Y-97000000D03*
%TD*%
D50*
%TO.C,D19*%
X147850000Y-133650000D03*
X149950000Y-133650000D03*
%TD*%
%TO.C,D15*%
X118950000Y-140400000D03*
X121050000Y-140400000D03*
%TD*%
D12*
%TO.C,IC4*%
X116695000Y-135775000D03*
X117965000Y-135775000D03*
X119235000Y-135775000D03*
X120505000Y-135775000D03*
X120505000Y-130225000D03*
X119235000Y-130225000D03*
X117965000Y-130225000D03*
X116695000Y-130225000D03*
%TD*%
D13*
%TO.C,U6*%
X93715327Y-137014609D03*
X92909225Y-136208508D03*
D14*
X89911092Y-139751113D03*
X87754416Y-137594437D03*
X87542284Y-142119920D03*
X85385609Y-139963245D03*
D13*
X91297021Y-134596304D03*
X90490920Y-133790202D03*
%TD*%
D25*
%TO.C,D13*%
X130200000Y-142750000D03*
X130200000Y-144850000D03*
%TD*%
D15*
%TO.C,C5*%
X96933623Y-97666377D03*
X95466377Y-99133623D03*
%TD*%
D30*
%TO.C,R80*%
X87325000Y-92775000D03*
X87325000Y-90775000D03*
%TD*%
%TO.C,R87*%
X63400000Y-116600000D03*
X63400000Y-114600000D03*
%TD*%
D17*
%TO.C,C8*%
X89800000Y-106962500D03*
X89800000Y-109037500D03*
%TD*%
D10*
%TO.C,R30*%
X106150000Y-132500000D03*
X104150000Y-132500000D03*
%TD*%
%TO.C,R9*%
X103800000Y-113000000D03*
X101800000Y-113000000D03*
%TD*%
%TO.C,R3*%
X89262500Y-73200000D03*
X87262500Y-73200000D03*
%TD*%
D30*
%TO.C,R90*%
X139800000Y-140100000D03*
X139800000Y-138100000D03*
%TD*%
D52*
%TO.C,C4*%
X123279854Y-72045146D03*
X121070146Y-74254854D03*
%TD*%
D18*
%TO.C,R8*%
X155150000Y-87687500D03*
X155150000Y-89687500D03*
%TD*%
D11*
%TO.C,R26*%
X77500000Y-114000000D03*
X79500000Y-114000000D03*
%TD*%
D50*
%TO.C,D28*%
X63750000Y-122000000D03*
X65850000Y-122000000D03*
%TD*%
D26*
%TO.C,C33*%
X71062500Y-106050000D03*
X73137500Y-106050000D03*
%TD*%
D18*
%TO.C,R66*%
X144250000Y-105900000D03*
X144250000Y-107900000D03*
%TD*%
D46*
%TO.C,X2*%
X86350000Y-99625000D03*
X88450000Y-99625000D03*
X88450000Y-97975000D03*
X86350000Y-97975000D03*
%TD*%
D19*
%TO.C,Q6*%
X120000000Y-150400000D03*
X120000000Y-148500000D03*
X118124999Y-149450000D03*
%TD*%
D53*
%TO.C,L1*%
X181800001Y-79500003D03*
X176200001Y-79500003D03*
%TD*%
D48*
%TO.C,IC1*%
X75475000Y-103990000D03*
X75475000Y-102720000D03*
X75475000Y-101450000D03*
X75475000Y-100180000D03*
X70525000Y-100180000D03*
X70525000Y-101450000D03*
X70525000Y-102720000D03*
X70525000Y-103990000D03*
%TD*%
D10*
%TO.C,R17*%
X78000000Y-89250000D03*
X76000000Y-89250000D03*
%TD*%
%TO.C,R33*%
X98000000Y-130500000D03*
X96000000Y-130500000D03*
%TD*%
D54*
%TO.C,C20*%
X113475000Y-72412500D03*
X113475000Y-69287500D03*
%TD*%
D39*
%TO.C,C13*%
X127666377Y-80333623D03*
X129133623Y-78866377D03*
%TD*%
D30*
%TO.C,R57*%
X132400000Y-156000000D03*
X132400000Y-154000000D03*
%TD*%
%TO.C,R86*%
X115400000Y-119200000D03*
X115400000Y-117200000D03*
%TD*%
%TO.C,R76*%
X63400000Y-109600000D03*
X63400000Y-107600000D03*
%TD*%
D17*
%TO.C,C2*%
X169775000Y-87762500D03*
X169775000Y-89837500D03*
%TD*%
D39*
%TO.C,C22*%
X108266377Y-111933623D03*
X109733623Y-110466377D03*
%TD*%
D16*
%TO.C,C17*%
X99733623Y-79733623D03*
X98266377Y-78266377D03*
%TD*%
D25*
%TO.C,D31*%
X139100000Y-142750000D03*
X139100000Y-144850000D03*
%TD*%
D10*
%TO.C,R54*%
X121000000Y-138200000D03*
X119000000Y-138200000D03*
%TD*%
D17*
%TO.C,C43*%
X61300000Y-107525000D03*
X61300000Y-109600000D03*
%TD*%
D10*
%TO.C,R43*%
X120000000Y-144000000D03*
X118000000Y-144000000D03*
%TD*%
D12*
%TO.C,IC6*%
X154000000Y-117500000D03*
X155270000Y-117500000D03*
X156540000Y-117500000D03*
X157810000Y-117500000D03*
X157810000Y-111950000D03*
X156540000Y-111950000D03*
X155270000Y-111950000D03*
X154000000Y-111950000D03*
%TD*%
D10*
%TO.C,R2*%
X75700000Y-70300000D03*
X73700000Y-70300000D03*
%TD*%
D45*
%TO.C,C9*%
X119866377Y-107466377D03*
X121333623Y-108933623D03*
%TD*%
D11*
%TO.C,R28*%
X73000000Y-118500000D03*
X75000000Y-118500000D03*
%TD*%
D18*
%TO.C,R81*%
X89550000Y-90787500D03*
X89550000Y-92787500D03*
%TD*%
D11*
%TO.C,R7*%
X76000000Y-81400000D03*
X78000000Y-81400000D03*
%TD*%
%TO.C,R29*%
X75250000Y-116250000D03*
X77250000Y-116250000D03*
%TD*%
D18*
%TO.C,R75*%
X122000000Y-117200000D03*
X122000000Y-119200000D03*
%TD*%
D12*
%TO.C,IC8*%
X140800000Y-117500000D03*
X142070000Y-117500000D03*
X143340000Y-117500000D03*
X144610000Y-117500000D03*
X144610000Y-111950000D03*
X143340000Y-111950000D03*
X142070000Y-111950000D03*
X140800000Y-111950000D03*
%TD*%
D55*
%TO.C,F3*%
X175612500Y-87600000D03*
X182387500Y-87600000D03*
%TD*%
D45*
%TO.C,C10*%
X124466377Y-102866377D03*
X125933623Y-104333623D03*
%TD*%
D30*
%TO.C,R69*%
X136600000Y-154700000D03*
X136600000Y-152700000D03*
%TD*%
D19*
%TO.C,Q4*%
X111275000Y-141475000D03*
X111275000Y-139575000D03*
X109399999Y-140525000D03*
%TD*%
D30*
%TO.C,R88*%
X113200000Y-119200000D03*
X113200000Y-117200000D03*
%TD*%
D56*
%TO.C,D8*%
X168437500Y-96375001D03*
X168437500Y-98274999D03*
X170712500Y-97325000D03*
%TD*%
D57*
%TO.C,C3*%
X135529854Y-95379854D03*
X133320146Y-93170146D03*
%TD*%
D18*
%TO.C,R91*%
X128600000Y-117200000D03*
X128600000Y-119200000D03*
%TD*%
D26*
%TO.C,C36*%
X79675000Y-111750000D03*
X81750000Y-111750000D03*
%TD*%
%TO.C,C31*%
X155087500Y-103875000D03*
X157162500Y-103875000D03*
%TD*%
D17*
%TO.C,C40*%
X99400000Y-117125000D03*
X99400000Y-119200000D03*
%TD*%
D15*
%TO.C,C6*%
X101333623Y-101466377D03*
X99866377Y-102933623D03*
%TD*%
D17*
%TO.C,C42*%
X94800000Y-117125000D03*
X94800000Y-119200000D03*
%TD*%
D10*
%TO.C,R45*%
X111500000Y-144000000D03*
X109500000Y-144000000D03*
%TD*%
D32*
%TO.C,D17*%
X132400000Y-152150000D03*
X132400000Y-150050000D03*
%TD*%
D25*
%TO.C,D30*%
X136200000Y-142750000D03*
X136200000Y-144850000D03*
%TD*%
D10*
%TO.C,R1*%
X89225000Y-70300000D03*
X87225000Y-70300000D03*
%TD*%
D18*
%TO.C,R77*%
X65500000Y-107600000D03*
X65500000Y-109600000D03*
%TD*%
D32*
%TO.C,D20*%
X143600000Y-142150000D03*
X143600000Y-140050000D03*
%TD*%
D13*
%TO.C,U10*%
X114268306Y-157618305D03*
X113462204Y-156812204D03*
D14*
X110464071Y-160354809D03*
X108307395Y-158198133D03*
X108095263Y-162723616D03*
X105938588Y-160566941D03*
D13*
X111850000Y-155200000D03*
X111043899Y-154393898D03*
%TD*%
D10*
%TO.C,R21*%
X67450000Y-95625000D03*
X65450000Y-95625000D03*
%TD*%
D17*
%TO.C,C34*%
X55450000Y-110512500D03*
X55450000Y-112587500D03*
%TD*%
D45*
%TO.C,C11*%
X128066377Y-99266377D03*
X129533623Y-100733623D03*
%TD*%
D19*
%TO.C,Q3*%
X106500000Y-137000000D03*
X106500000Y-135100000D03*
X104624999Y-136050000D03*
%TD*%
D30*
%TO.C,R16*%
X65150000Y-102925000D03*
X65150000Y-100925000D03*
%TD*%
D32*
%TO.C,D18*%
X148000000Y-139650000D03*
X148000000Y-137550000D03*
%TD*%
D11*
%TO.C,R5*%
X76000000Y-77200000D03*
X78000000Y-77200000D03*
%TD*%
D17*
%TO.C,C35*%
X78650000Y-97762500D03*
X78650000Y-99837500D03*
%TD*%
D18*
%TO.C,R59*%
X137000000Y-105900000D03*
X137000000Y-107900000D03*
%TD*%
D23*
%TO.C,SW1*%
X142440000Y-86525000D03*
X150400000Y-86525000D03*
X142440000Y-91025000D03*
X150400000Y-91025000D03*
%TD*%
D30*
%TO.C,R22*%
X130200000Y-140000000D03*
X130200000Y-138000000D03*
%TD*%
D18*
%TO.C,R58*%
X134600000Y-105900000D03*
X134600000Y-107900000D03*
%TD*%
D30*
%TO.C,R60*%
X147950000Y-143350000D03*
X147950000Y-141350000D03*
%TD*%
D32*
%TO.C,D22*%
X134500000Y-152150000D03*
X134500000Y-150050000D03*
%TD*%
D27*
%TO.C,S1*%
X71600000Y-109250000D03*
D28*
X71600000Y-110200000D03*
D27*
X71600000Y-111150000D03*
X74000000Y-111150000D03*
D29*
X74000000Y-109700000D03*
%TD*%
D47*
%TO.C,D7*%
X176899998Y-93000000D03*
X181200000Y-93000000D03*
%TD*%
D10*
%TO.C,R41*%
X107275000Y-139525000D03*
X105275000Y-139525000D03*
%TD*%
D22*
%TO.C,D3*%
X69562500Y-70300000D03*
X71437500Y-70300000D03*
%TD*%
D10*
%TO.C,R39*%
X115525000Y-139525000D03*
X113525000Y-139525000D03*
%TD*%
D13*
%TO.C,U11*%
X119418306Y-162768305D03*
X118612204Y-161962204D03*
D14*
X115614071Y-165504809D03*
X113457395Y-163348133D03*
X113245263Y-167873616D03*
X111088588Y-165716941D03*
D13*
X117000000Y-160350000D03*
X116193899Y-159543898D03*
%TD*%
D10*
%TO.C,R36*%
X102374999Y-137050000D03*
X100374999Y-137050000D03*
%TD*%
D21*
%TO.C,C44*%
X142525000Y-99037500D03*
X142525000Y-96962500D03*
%TD*%
D18*
%TO.C,R63*%
X151600000Y-105900000D03*
X151600000Y-107900000D03*
%TD*%
D32*
%TO.C,D23*%
X136600000Y-151150000D03*
X136600000Y-149050000D03*
%TD*%
D17*
%TO.C,C1*%
X153075000Y-87687500D03*
X153075000Y-89762500D03*
%TD*%
D35*
%TO.C,C23*%
X187237502Y-78700003D03*
X190362502Y-78700003D03*
%TD*%
D18*
%TO.C,R10*%
X132175000Y-73975000D03*
X132175000Y-75975000D03*
%TD*%
D51*
%TO.C,U2*%
X187075002Y-82800000D03*
X187075002Y-81850001D03*
X187075002Y-80900002D03*
X184800002Y-80900002D03*
X184800002Y-81850001D03*
X184800002Y-82800000D03*
%TD*%
D18*
%TO.C,R67*%
X146700000Y-105900000D03*
X146700000Y-107900000D03*
%TD*%
%TO.C,R18*%
X81250000Y-97800000D03*
X81250000Y-99800000D03*
%TD*%
D58*
%TO.C,F4*%
X167675000Y-75375000D03*
X160900000Y-75375000D03*
%TD*%
D49*
%TO.C,U3*%
X159925000Y-95420000D03*
X159925000Y-96690000D03*
X159925000Y-97960000D03*
X159925000Y-99230000D03*
X164875000Y-99230000D03*
X164875000Y-97960000D03*
X164875000Y-96690000D03*
X164875000Y-95420000D03*
%TD*%
D59*
%TO.C,C25*%
X189237502Y-74100003D03*
X187162502Y-74100003D03*
%TD*%
D19*
%TO.C,Q7*%
X124437500Y-154950000D03*
X124437500Y-153050000D03*
X122562499Y-154000000D03*
%TD*%
D10*
%TO.C,R48*%
X115812500Y-150450000D03*
X113812500Y-150450000D03*
%TD*%
D26*
%TO.C,C30*%
X155050000Y-97950000D03*
X157125000Y-97950000D03*
%TD*%
D39*
%TO.C,C21*%
X106666377Y-110333623D03*
X108133623Y-108866377D03*
%TD*%
D56*
%TO.C,D9*%
X168437500Y-102287501D03*
X168437500Y-104187499D03*
X170712500Y-103237500D03*
%TD*%
D10*
%TO.C,R35*%
X110750000Y-135000000D03*
X108750000Y-135000000D03*
%TD*%
D18*
%TO.C,R92*%
X130800000Y-117200000D03*
X130800000Y-119200000D03*
%TD*%
%TO.C,R55*%
X117600000Y-117200000D03*
X117600000Y-119200000D03*
%TD*%
D60*
%TO.C,D1*%
X68950000Y-78100000D03*
X68950000Y-79500000D03*
X71450000Y-79500000D03*
X71450000Y-78100000D03*
%TD*%
M02*
