%TF.GenerationSoftware,KiCad,Pcbnew,8.0.3*%
%TF.CreationDate,2025-01-15T13:42:05-05:00*%
%TF.ProjectId,EIM,45494d2e-6b69-4636-9164-5f7063625858,rev?*%
%TF.SameCoordinates,Original*%
%TF.FileFunction,Legend,Bot*%
%TF.FilePolarity,Positive*%
%FSLAX46Y46*%
G04 Gerber Fmt 4.6, Leading zero omitted, Abs format (unit mm)*
G04 Created by KiCad (PCBNEW 8.0.3) date 2025-01-15 13:42:05*
%MOMM*%
%LPD*%
G01*
G04 APERTURE LIST*
G04 Aperture macros list*
%AMRotRect*
0 Rectangle, with rotation*
0 The origin of the aperture is its center*
0 $1 length*
0 $2 width*
0 $3 Rotation angle, in degrees counterclockwise*
0 Add horizontal line*
21,1,$1,$2,0,0,$3*%
G04 Aperture macros list end*
%ADD10R,1.700000X1.700000*%
%ADD11O,1.700000X1.700000*%
%ADD12C,2.550000*%
%ADD13C,1.650000*%
%ADD14C,3.200000*%
%ADD15C,4.000000*%
%ADD16RotRect,2.250000X2.250000X315.000000*%
%ADD17C,2.250000*%
%ADD18C,4.050000*%
%ADD19C,2.310000*%
%ADD20C,4.800000*%
%ADD21C,6.000000*%
G04 APERTURE END LIST*
%LPC*%
D10*
%TO.C,J5*%
X39660000Y-72820000D03*
D11*
X42200000Y-72820000D03*
X39660000Y-75360000D03*
X42200000Y-75360000D03*
X39660000Y-77900000D03*
X42200000Y-77900000D03*
X39660000Y-80440000D03*
X42200000Y-80440000D03*
X39660000Y-82980000D03*
X42200000Y-82980000D03*
X39660000Y-85520000D03*
X42200000Y-85520000D03*
X39660000Y-88060000D03*
X42200000Y-88060000D03*
X39660000Y-90600000D03*
X42200000Y-90600000D03*
X39660000Y-93140000D03*
X42200000Y-93140000D03*
X39660000Y-95680000D03*
X42200000Y-95680000D03*
%TD*%
D12*
%TO.C,K1*%
X79130249Y-134030249D03*
D13*
X74887608Y-126393496D03*
D12*
X72059181Y-123565069D03*
X68665069Y-126959181D03*
D13*
X71493496Y-129787608D03*
%TD*%
D14*
%TO.C,REF\u002A\u002A*%
X194571930Y-68750000D03*
%TD*%
%TO.C,REF\u002A\u002A*%
X113321930Y-174750000D03*
%TD*%
%TO.C,REF\u002A\u002A*%
X32071930Y-98750000D03*
%TD*%
%TO.C,REF\u002A\u002A*%
X194571930Y-98750000D03*
%TD*%
D10*
%TO.C,J6*%
X53660000Y-72760000D03*
D11*
X56200000Y-72760000D03*
X53660000Y-75300000D03*
X56200000Y-75300000D03*
X53660000Y-77840000D03*
X56200000Y-77840000D03*
X53660000Y-80380000D03*
X56200000Y-80380000D03*
X53660000Y-82920000D03*
X56200000Y-82920000D03*
X53660000Y-85460000D03*
X56200000Y-85460000D03*
X53660000Y-88000000D03*
X56200000Y-88000000D03*
X53660000Y-90540000D03*
X56200000Y-90540000D03*
X53660000Y-93080000D03*
X56200000Y-93080000D03*
X53660000Y-95620000D03*
X56200000Y-95620000D03*
%TD*%
D10*
%TO.C,J8*%
X154850000Y-70135000D03*
D11*
X154850000Y-72675000D03*
X154850000Y-75215000D03*
X154850000Y-77755000D03*
X154850000Y-80295000D03*
X154850000Y-82835000D03*
%TD*%
D15*
%TO.C,J4*%
X70463033Y-138835539D03*
X102636391Y-171008898D03*
D16*
X77152263Y-142045804D03*
D17*
X79627137Y-144520678D03*
X82102010Y-146995551D03*
X84576884Y-149470425D03*
X87051758Y-151945299D03*
X89526632Y-154420173D03*
X92001505Y-156895046D03*
X94476379Y-159369920D03*
X96951253Y-161844794D03*
X99426127Y-164319668D03*
X74677389Y-144520678D03*
X77152263Y-146995551D03*
X79627137Y-149470425D03*
X82102010Y-151945299D03*
X84576884Y-154420173D03*
X87051758Y-156895046D03*
X89526632Y-159369920D03*
X92001505Y-161844794D03*
X94476379Y-164319668D03*
X96951253Y-166794541D03*
%TD*%
D18*
%TO.C,J3*%
X39173737Y-107615167D03*
X56497853Y-124939283D03*
D19*
X45862967Y-110825432D03*
X48337841Y-113300306D03*
X50812714Y-115775179D03*
X53287588Y-118250053D03*
X43388093Y-113300306D03*
X45862967Y-115775179D03*
X48337841Y-118250053D03*
X50812714Y-120724927D03*
%TD*%
D13*
%TO.C,J1*%
X146261359Y-149493993D03*
X144705724Y-151049628D03*
X143150089Y-152605263D03*
X141594454Y-154160898D03*
X140038819Y-155716533D03*
X138483184Y-157272168D03*
X136927549Y-158827803D03*
X135371915Y-160383437D03*
X133816280Y-161939072D03*
X132260645Y-163494707D03*
X130705010Y-165050342D03*
X129149375Y-166605977D03*
X127593740Y-168161612D03*
X126038105Y-169717247D03*
X149514050Y-151191049D03*
X147958415Y-152746684D03*
X146402780Y-154302319D03*
X144847145Y-155857954D03*
X143291511Y-157413589D03*
X141735876Y-158969224D03*
X140180241Y-160524859D03*
X138624606Y-162080494D03*
X137068971Y-163636129D03*
X135513336Y-165191764D03*
X133957701Y-166747398D03*
X132402066Y-168303033D03*
X130846431Y-169858668D03*
X129290796Y-171414303D03*
D20*
X132260645Y-176646893D03*
X153968823Y-154938715D03*
%TD*%
D14*
%TO.C,REF\u002A\u002A*%
X32071930Y-68750000D03*
%TD*%
D17*
%TO.C,J2*%
X163075884Y-125402186D03*
X165550758Y-122927312D03*
X168025631Y-120452438D03*
X170500505Y-117977565D03*
X172975379Y-115502691D03*
X175450253Y-113027817D03*
X165550758Y-127877060D03*
X168025631Y-125402186D03*
X170500505Y-122927312D03*
X172975379Y-120452438D03*
X175450253Y-117977565D03*
X177925126Y-115502691D03*
D21*
X184571930Y-112250000D03*
X162298066Y-134523863D03*
%TD*%
%LPD*%
M02*
